<?xml version="1.0" encoding="iso-8859-1"?>
<!-- Uploaded to: SVG Repo, www.svgrepo.com, Generator: SVG Repo Mixer Tools -->
<!DOCTYPE svg PUBLIC "-//W3C//DTD SVG 1.1//EN" "http://www.w3.org/Graphics/SVG/1.1/DTD/svg11.dtd">
<svg fill="#000000" version="1.1" id="Capa_1" xmlns="http://www.w3.org/2000/svg" xmlns:xlink="http://www.w3.org/1999/xlink" 
	 width="800px" height="800px" viewBox="0 0 413.45 413.45"
	 xml:space="preserve">
<g>
	<path d="M15.701,88.969h382.048c8.676,0,15.701-7.025,15.701-15.699c0-8.668-7.025-15.701-15.701-15.701H15.701
		C7.035,57.568,0,64.602,0,73.27C0,81.944,7.035,88.969,15.701,88.969z"/>
	<path d="M15.701,222.426H158.73v14.307c-7.851-2.3-16.733-2.729-25.76-0.821c-24.774,5.266-41.357,26.053-37.029,46.442
		c4.34,20.386,27.922,32.645,52.7,27.387c21.895-4.649,37.365-21.428,37.672-39.354c0.142-0.797,0.23-1.603,0.23-2.408v-45.553
		h39.447c-11.024,9.21-16.863,22.401-14.091,35.466c4.324,20.39,27.92,32.641,52.698,27.383
		c21.896-4.645,37.365-21.436,37.674-39.345c0.136-0.798,0.229-1.599,0.229-2.404v-21.1h95.248c8.676,0,15.701-7.021,15.701-15.701
		c0-8.666-7.025-15.701-15.701-15.701h-95.248v-74.616c0-0.008,0-0.022,0-0.022c0-0.449-0.093-0.89-0.137-1.334
		c-0.056-0.499-0.072-1.016-0.168-1.503c0-0.008,0-0.008,0-0.016c-0.032-0.142-0.092-0.256-0.124-0.398
		c-0.185-0.77-0.397-1.517-0.706-2.222c-0.16-0.353-0.376-0.646-0.537-0.982c-0.244-0.471-0.477-0.944-0.765-1.373
		c-0.261-0.375-0.569-0.689-0.858-1.028c-0.276-0.349-0.553-0.715-0.861-1.03c-0.305-0.298-0.641-0.524-0.981-0.809
		c-0.364-0.291-0.718-0.622-1.103-0.886c-0.32-0.203-0.688-0.371-1.025-0.547c-0.453-0.246-0.878-0.515-1.335-0.701
		c-0.437-0.18-0.873-0.28-1.318-0.407c-0.425-0.134-0.829-0.292-1.258-0.387c-0.706-0.138-1.427-0.18-2.148-0.212
		c-0.196-0.006-0.381-0.06-0.581-0.06c-0.016,0-0.016,0.008-0.032,0.008c-0.465,0-0.966,0.098-1.446,0.148
		c-0.469,0.046-0.922,0.062-1.375,0.138c0,0.008-0.016,0.008-0.016,0.008l-115.953,24.471c-6.436,1.349-11.034,7.033-11.034,13.595
		v50.165H15.701C7.035,191.024,0,198.059,0,206.725C0,215.405,7.035,222.426,15.701,222.426z M186.544,152.156l88.153-18.594v57.462
		h-88.153V152.156z"/>
	<path d="M15.701,355.882h382.048c8.676,0,15.701-7.021,15.701-15.701c0-8.66-7.025-15.701-15.701-15.701H15.701
		C7.035,324.479,0,331.521,0,340.181C0,348.86,7.035,355.882,15.701,355.882z"/>
</g>
</svg>